<svg width="904" height="350" viewBox="0 0 904 350" fill="none" xmlns="http://www.w3.org/2000/svg">
<rect width="904" height="350" rx="14" fill="#D9D9D9"/>
<rect x="14" y="284" width="52" height="52" rx="6" fill="#F2F2F2"/>
<path d="M26.6173 306.123C24.5186 306.123 22.837 304.462 22.837 302.377C22.837 300.285 24.5186 298.624 26.6173 298.624C27.9024 298.624 29.0372 299.253 29.7276 300.217L28.8321 300.873C28.3536 300.148 27.5675 299.684 26.6173 299.684C25.0929 299.684 23.9307 300.859 23.9307 302.377C23.9307 303.888 25.0929 305.063 26.6173 305.063C27.5675 305.063 28.3536 304.599 28.8321 303.874L29.7276 304.53C29.0372 305.494 27.9024 306.123 26.6173 306.123ZM34.2943 299.745H32.3802V303.888C32.3802 304.626 32.8246 305.05 33.4671 305.05H34.2943V306H33.3441C32.141 306 31.2865 305.316 31.2865 304.011V299.745H30.0697V298.761H31.2865V296.758H32.3802V298.761H34.2943V299.745ZM36.8102 299.93C37.2887 299.15 38.1705 298.692 39.3463 298.692V299.745C37.9039 299.745 36.8102 300.271 36.8102 302.035V306H35.7164V298.761H36.8102V299.93ZM40.454 306V295.5H41.5478V306H40.454Z" fill="#63666A"/>
<rect x="68" y="68" width="52" height="52" rx="6" fill="#F2F2F2"/>
<path d="M93.3643 79.5H94.5127V86.9785H93.3643V79.5ZM93.9385 90.1367C93.8018 90.1367 93.6719 90.1003 93.5488 90.0273C93.4303 89.959 93.3346 89.8656 93.2617 89.7471C93.1934 89.624 93.1592 89.4941 93.1592 89.3574C93.1592 89.1387 93.2367 88.9541 93.3916 88.8037C93.5465 88.6488 93.7288 88.5713 93.9385 88.5713C94.1527 88.5713 94.3372 88.6488 94.4922 88.8037C94.6471 88.9541 94.7246 89.1387 94.7246 89.3574C94.7246 89.4941 94.6882 89.624 94.6152 89.7471C94.5423 89.8656 94.4443 89.959 94.3213 90.0273C94.2028 90.1003 94.0752 90.1367 93.9385 90.1367Z" fill="#63666A"/>
<path d="M97.042 105.879V107H91.2725V105.879H93.5693V97.9902L91.2725 99.7881V98.4756L93.7881 96.5H94.7451V105.879H97.042Z" fill="#63666A"/>
<rect x="122" y="68" width="52" height="52" rx="6" fill="#F2F2F2"/>
<path d="M148.178 91.5654C147.189 91.5654 146.298 91.3535 145.505 90.9297C144.716 90.5059 144.097 89.9089 143.646 89.1387C143.194 88.3639 142.969 87.4753 142.969 86.4727C142.969 85.5111 143.201 84.6383 143.666 83.8545C144.131 83.0661 144.767 82.4463 145.573 81.9951C146.38 81.5439 147.271 81.3184 148.246 81.3184C149.112 81.3184 149.91 81.4893 150.639 81.8311C151.372 82.1683 151.958 82.6719 152.396 83.3418C152.838 84.0072 153.059 84.807 153.059 85.7412C153.059 86.4521 152.94 87.0605 152.703 87.5664C152.471 88.0723 152.156 88.4528 151.76 88.708C151.363 88.9632 150.928 89.0908 150.454 89.0908C150.09 89.0908 149.798 88.9951 149.579 88.8037C149.36 88.6123 149.233 88.3708 149.196 88.0791H149.169C148.996 88.3525 148.754 88.5872 148.444 88.7832C148.134 88.9792 147.793 89.0771 147.419 89.0771C147.027 89.0771 146.685 88.986 146.394 88.8037C146.102 88.6169 145.876 88.3571 145.717 88.0244C145.562 87.6917 145.484 87.3089 145.484 86.876C145.484 86.3337 145.598 85.8278 145.826 85.3584C146.059 84.8844 146.38 84.5062 146.79 84.2236C147.2 83.9411 147.663 83.7998 148.178 83.7998C148.524 83.7998 148.827 83.8773 149.087 84.0322C149.351 84.1826 149.543 84.3809 149.661 84.627H149.688L149.825 83.9775H150.666C150.511 84.8389 150.333 85.7458 150.133 86.6982C150.064 87.0492 150.03 87.3226 150.03 87.5186C150.03 87.7646 150.078 87.9515 150.174 88.0791C150.274 88.2021 150.438 88.2637 150.666 88.2637C150.944 88.2637 151.197 88.168 151.425 87.9766C151.653 87.7806 151.833 87.5003 151.965 87.1357C152.097 86.7666 152.163 86.3359 152.163 85.8438C152.163 85.0872 151.999 84.431 151.671 83.875C151.343 83.319 150.882 82.8952 150.29 82.6035C149.698 82.3073 149.012 82.1592 148.232 82.1592C147.398 82.1592 146.658 82.346 146.011 82.7197C145.368 83.0889 144.867 83.6016 144.507 84.2578C144.151 84.9141 143.974 85.6569 143.974 86.4863C143.974 87.3431 144.16 88.0928 144.534 88.7354C144.912 89.3734 145.427 89.8633 146.079 90.2051C146.731 90.5514 147.462 90.7246 148.273 90.7246C148.98 90.7246 149.616 90.6243 150.181 90.4238C150.746 90.2233 151.268 89.918 151.746 89.5078L152.266 90.1572C151.737 90.6221 151.126 90.973 150.434 91.21C149.741 91.4469 148.989 91.5654 148.178 91.5654ZM147.617 88.209C147.986 88.209 148.294 88.0928 148.54 87.8604C148.786 87.6279 148.968 87.3431 149.087 87.0059C149.205 86.6686 149.265 86.3382 149.265 86.0146C149.265 85.609 149.18 85.2809 149.012 85.0303C148.843 84.7796 148.565 84.6543 148.178 84.6543C147.854 84.6543 147.567 84.766 147.316 84.9893C147.07 85.2126 146.881 85.4997 146.749 85.8506C146.617 86.1969 146.551 86.5524 146.551 86.917C146.551 87.2542 146.635 87.555 146.804 87.8193C146.972 88.0791 147.243 88.209 147.617 88.209Z" fill="#63666A"/>
<path d="M151.5 105.879V107H144.671V105.961C146.065 104.744 147.134 103.721 147.877 102.892C148.62 102.058 149.117 101.379 149.367 100.854C149.622 100.33 149.75 99.8496 149.75 99.4121C149.75 98.9746 149.666 98.61 149.497 98.3184C149.333 98.0267 149.11 97.8125 148.827 97.6758C148.545 97.5345 148.228 97.4639 147.877 97.4639C147.485 97.4639 147.143 97.5482 146.852 97.7168C146.564 97.8809 146.343 98.1156 146.188 98.4209C146.034 98.7217 145.956 99.0749 145.956 99.4805L144.671 99.4668C144.671 98.8561 144.812 98.3138 145.095 97.8398C145.382 97.3659 145.771 96.999 146.264 96.7393C146.756 96.4749 147.303 96.3428 147.904 96.3428C148.483 96.3428 149.003 96.4635 149.463 96.7051C149.923 96.9421 150.283 97.277 150.543 97.71C150.807 98.1383 150.939 98.6305 150.939 99.1865C150.939 99.8792 150.732 100.615 150.317 101.395C149.907 102.169 149.356 102.937 148.663 103.698C147.975 104.455 147.2 105.182 146.339 105.879H151.5Z" fill="#63666A"/>
<rect x="176" y="68" width="52" height="52" rx="6" fill="#F2F2F2"/>
<path d="M199.464 87.5527H197.488L197.604 86.6846H199.58L200.065 83.417H198.083L198.22 82.5693H200.168L200.53 80.1016H201.371L201.036 82.5693H203.682L204.03 80.1016H204.885L204.536 82.5693H206.519L206.382 83.417H204.42L203.962 86.6846H205.917L205.808 87.5527H203.846L203.47 90H202.629L202.978 87.5527H200.305L199.97 90H199.115L199.464 87.5527ZM203.094 86.6846L203.565 83.417H200.906L200.448 86.6846H203.094Z" fill="#63666A"/>
<path d="M203.374 101.258C204.044 101.467 204.568 101.812 204.946 102.29C205.325 102.769 205.514 103.345 205.514 104.02C205.514 104.639 205.354 105.186 205.035 105.66C204.716 106.13 204.281 106.494 203.729 106.754C203.183 107.009 202.57 107.137 201.891 107.137C201.234 107.137 200.633 107.009 200.086 106.754C199.544 106.499 199.113 106.141 198.794 105.681C198.475 105.216 198.315 104.685 198.315 104.088L199.512 104.074C199.512 104.466 199.614 104.81 199.819 105.106C200.029 105.398 200.314 105.624 200.674 105.783C201.034 105.943 201.439 106.022 201.891 106.022C202.369 106.022 202.791 105.94 203.155 105.776C203.524 105.608 203.812 105.368 204.017 105.059C204.222 104.749 204.324 104.384 204.324 103.965C204.324 103.541 204.219 103.176 204.01 102.871C203.805 102.566 203.518 102.333 203.148 102.174C202.784 102.014 202.365 101.935 201.891 101.935H200.852V100.813H201.891C202.251 100.813 202.565 100.738 202.834 100.588C203.107 100.438 203.317 100.232 203.463 99.9727C203.609 99.7129 203.682 99.4235 203.682 99.1045C203.682 98.79 203.609 98.5098 203.463 98.2637C203.317 98.0176 203.11 97.8262 202.841 97.6895C202.572 97.5482 202.255 97.4775 201.891 97.4775C201.521 97.4775 201.196 97.5436 200.913 97.6758C200.631 97.8034 200.412 97.9857 200.257 98.2227C200.102 98.4551 200.024 98.7217 200.024 99.0225H198.835C198.835 98.5029 198.969 98.0426 199.238 97.6416C199.507 97.236 199.874 96.9215 200.339 96.6982C200.804 96.4749 201.321 96.3633 201.891 96.3633C202.438 96.3633 202.939 96.4749 203.395 96.6982C203.85 96.9215 204.21 97.236 204.475 97.6416C204.739 98.0472 204.871 98.512 204.871 99.0361C204.871 99.5511 204.739 100 204.475 100.383C204.215 100.761 203.848 101.053 203.374 101.258Z" fill="#63666A"/>
<rect x="230" y="68" width="52" height="52" rx="6" fill="#F2F2F2"/>
<path d="M259.302 87.2246C259.302 87.7943 259.179 88.2887 258.933 88.708C258.691 89.1227 258.358 89.4508 257.935 89.6924C257.511 89.9294 257.035 90.0706 256.506 90.1162V91.2031H255.371V90.0752C254.801 89.984 254.271 89.7972 253.778 89.5146C253.291 89.2275 252.887 88.8857 252.568 88.4893L253.423 87.6348C253.751 88.0905 254.132 88.4437 254.564 88.6943C254.997 88.9404 255.485 89.0635 256.027 89.0635C256.433 89.0635 256.798 88.9906 257.121 88.8447C257.445 88.6943 257.7 88.4847 257.887 88.2158C258.074 87.9424 258.167 87.6279 258.167 87.2725C258.167 86.8988 258.064 86.582 257.859 86.3223C257.659 86.0579 257.406 85.8415 257.101 85.6729C256.8 85.5042 256.394 85.3128 255.884 85.0986C255.264 84.8389 254.765 84.5996 254.387 84.3809C254.013 84.1621 253.701 83.8704 253.45 83.5059C253.2 83.1367 253.074 82.6742 253.074 82.1182C253.074 81.6351 253.172 81.2044 253.368 80.8262C253.564 80.4479 253.835 80.138 254.182 79.8965C254.528 79.6549 254.924 79.4954 255.371 79.418V78.2695H256.506V79.3975C257.025 79.4613 257.495 79.6162 257.914 79.8623C258.333 80.1038 258.702 80.4115 259.021 80.7852L258.297 81.5439C257.9 81.1247 257.527 80.8353 257.176 80.6758C256.829 80.5163 256.442 80.4365 256.014 80.4365C255.686 80.4365 255.382 80.5003 255.104 80.6279C254.831 80.751 254.612 80.9333 254.448 81.1748C254.289 81.4163 254.209 81.7035 254.209 82.0361C254.209 82.4053 254.312 82.7174 254.517 82.9727C254.726 83.2233 254.979 83.4261 255.275 83.5811C255.572 83.736 255.995 83.9251 256.547 84.1484C257.121 84.3854 257.595 84.6178 257.969 84.8457C258.347 85.069 258.664 85.3743 258.919 85.7617C259.174 86.1491 259.302 86.6367 259.302 87.2246Z" fill="#63666A"/>
<path d="M260.061 104.785H258.201V107H257.012V104.785H251.939V104.02L256.718 96.5H258.201V103.671H260.061V104.785ZM257.012 103.671V97.7236L253.361 103.671H257.012Z" fill="#63666A"/>
<rect x="284" y="68" width="52" height="52" rx="6" fill="#F2F2F2"/>
<path d="M307.484 83.6562C307.092 83.6562 306.732 83.5605 306.404 83.3691C306.076 83.1732 305.814 82.9111 305.618 82.583C305.427 82.2503 305.331 81.8857 305.331 81.4893C305.331 81.1019 305.427 80.7464 305.618 80.4229C305.814 80.0993 306.076 79.8418 306.404 79.6504C306.732 79.459 307.092 79.3633 307.484 79.3633C307.872 79.3633 308.227 79.459 308.551 79.6504C308.879 79.8418 309.139 80.0993 309.33 80.4229C309.521 80.7464 309.617 81.1019 309.617 81.4893C309.617 81.8812 309.521 82.2435 309.33 82.5762C309.139 82.9089 308.879 83.1732 308.551 83.3691C308.227 83.5605 307.872 83.6562 307.484 83.6562ZM306.158 90L312.57 79.5H313.801L307.416 90H306.158ZM307.484 82.7061C307.703 82.7061 307.904 82.6514 308.086 82.542C308.268 82.4326 308.412 82.2845 308.517 82.0977C308.621 81.9108 308.674 81.708 308.674 81.4893C308.674 81.2796 308.619 81.0837 308.51 80.9014C308.405 80.7191 308.261 80.5732 308.079 80.4639C307.901 80.3545 307.703 80.2998 307.484 80.2998C307.266 80.2998 307.063 80.3545 306.876 80.4639C306.689 80.5732 306.541 80.7191 306.432 80.9014C306.322 81.0837 306.268 81.2796 306.268 81.4893C306.268 81.708 306.322 81.9108 306.432 82.0977C306.541 82.2845 306.689 82.4326 306.876 82.542C307.063 82.6514 307.266 82.7061 307.484 82.7061ZM312.529 90.1094C312.137 90.1094 311.777 90.0137 311.449 89.8223C311.121 89.6263 310.861 89.3643 310.67 89.0361C310.479 88.708 310.383 88.348 310.383 87.9561C310.383 87.5732 310.479 87.2201 310.67 86.8965C310.866 86.5684 311.128 86.3086 311.456 86.1172C311.784 85.9258 312.142 85.8301 312.529 85.8301C312.917 85.8301 313.272 85.9258 313.596 86.1172C313.924 86.3086 314.184 86.5661 314.375 86.8896C314.571 87.2132 314.669 87.5687 314.669 87.9561C314.669 88.348 314.571 88.708 314.375 89.0361C314.184 89.3643 313.924 89.6263 313.596 89.8223C313.272 90.0137 312.917 90.1094 312.529 90.1094ZM312.529 89.1729C312.748 89.1729 312.949 89.1182 313.131 89.0088C313.318 88.8994 313.464 88.7513 313.568 88.5645C313.678 88.3776 313.732 88.1748 313.732 87.9561C313.732 87.7419 313.678 87.5436 313.568 87.3613C313.459 87.179 313.311 87.0355 313.124 86.9307C312.942 86.8213 312.743 86.7666 312.529 86.7666C312.306 86.7666 312.101 86.8213 311.914 86.9307C311.732 87.0355 311.586 87.179 311.477 87.3613C311.372 87.5436 311.319 87.7419 311.319 87.9561C311.319 88.1748 311.372 88.3776 311.477 88.5645C311.586 88.7513 311.732 88.8994 311.914 89.0088C312.101 89.1182 312.306 89.1729 312.529 89.1729Z" fill="#63666A"/>
<path d="M309.665 100.451C310.522 100.451 311.233 100.581 311.798 100.841C312.368 101.101 312.789 101.467 313.062 101.941C313.336 102.411 313.473 102.967 313.473 103.609C313.473 104.311 313.322 104.926 313.021 105.455C312.725 105.984 312.308 106.392 311.771 106.679C311.237 106.966 310.624 107.109 309.932 107.109C309.339 107.109 308.783 106.993 308.264 106.761C307.744 106.524 307.313 106.175 306.972 105.715C306.63 105.255 306.432 104.699 306.377 104.047H307.635C307.708 104.489 307.86 104.856 308.093 105.147C308.325 105.439 308.603 105.653 308.927 105.79C309.25 105.927 309.59 105.995 309.945 105.995C310.396 105.995 310.8 105.902 311.155 105.715C311.511 105.528 311.786 105.259 311.982 104.908C312.183 104.557 312.283 104.145 312.283 103.671C312.283 103.006 312.071 102.488 311.647 102.119C311.224 101.75 310.586 101.565 309.733 101.565H306.712L307.662 96.5H313.124V97.6211H308.605L308.079 100.451H309.665Z" fill="#63666A"/>
<rect x="338" y="68" width="52" height="52" rx="6" fill="#F2F2F2"/>
<path d="M367.418 87.2246L364 80.4297L360.575 87.2246H359.577L363.474 79.5H364.52L368.416 87.2246H367.418Z" fill="#63666A"/>
<path d="M367.685 103.534C367.685 104.168 367.523 104.76 367.199 105.312C366.88 105.858 366.447 106.296 365.9 106.624C365.358 106.948 364.768 107.109 364.13 107.109C363.455 107.109 362.831 106.961 362.257 106.665C361.687 106.369 361.227 105.961 360.876 105.441C360.53 104.922 360.343 104.341 360.315 103.698C360.279 102.81 360.58 101.969 361.218 101.176L364.923 96.5H366.393L363.323 100.157C363.592 100.052 363.929 100 364.335 100C364.832 100 365.34 100.148 365.859 100.444C366.383 100.741 366.819 101.16 367.165 101.702C367.511 102.24 367.685 102.851 367.685 103.534ZM364.116 105.947C364.576 105.947 364.989 105.84 365.354 105.626C365.723 105.412 366.01 105.122 366.215 104.758C366.424 104.393 366.529 103.994 366.529 103.562L366.522 103.404C366.495 102.926 366.365 102.507 366.133 102.146C365.9 101.782 365.597 101.502 365.224 101.306C364.85 101.105 364.442 101.005 364 101.005C363.503 101.005 363.063 101.117 362.681 101.34C362.302 101.559 362.008 101.859 361.799 102.242C361.594 102.62 361.491 103.042 361.491 103.507C361.491 103.994 361.603 104.423 361.826 104.792C362.054 105.161 362.366 105.446 362.763 105.646C363.159 105.847 363.61 105.947 364.116 105.947Z" fill="#63666A"/>
<rect x="392" y="68" width="52" height="52" rx="6" fill="#F2F2F2"/>
<path d="M416.79 90.1709C416.202 90.1709 415.678 90.041 415.218 89.7812C414.762 89.5215 414.407 89.1637 414.151 88.708C413.896 88.2477 413.769 87.7259 413.769 87.1426C413.769 86.6777 413.855 86.2721 414.028 85.9258C414.206 85.5794 414.448 85.2627 414.753 84.9756C415.063 84.6885 415.514 84.3193 416.106 83.8682C415.719 83.4215 415.441 83.0182 415.272 82.6582C415.108 82.2982 415.026 81.9359 415.026 81.5713C415.026 81.1566 415.122 80.7806 415.313 80.4434C415.509 80.1061 415.781 79.8418 416.127 79.6504C416.473 79.459 416.863 79.3633 417.296 79.3633C417.738 79.3633 418.132 79.459 418.479 79.6504C418.825 79.8372 419.094 80.0947 419.285 80.4229C419.481 80.751 419.579 81.1156 419.579 81.5166C419.579 81.8584 419.504 82.1683 419.354 82.4463C419.208 82.7243 419.016 82.9795 418.779 83.2119C418.542 83.4398 418.207 83.7292 417.774 84.0801L419.859 86.7803L421.247 85.0303L422.129 85.7275L420.584 87.6621L422.396 90L420.898 90.0273L419.777 88.5576C419.276 89.0726 418.784 89.4714 418.301 89.7539C417.818 90.0319 417.314 90.1709 416.79 90.1709ZM417.07 83.335C417.426 83.0706 417.688 82.8656 417.856 82.7197C418.03 82.5739 418.175 82.4053 418.294 82.2139C418.412 82.0179 418.472 81.7992 418.472 81.5576C418.472 81.3252 418.415 81.1224 418.301 80.9492C418.187 80.7715 418.034 80.6348 417.843 80.5391C417.656 80.4434 417.455 80.3955 417.241 80.3955C416.899 80.3955 416.626 80.5049 416.421 80.7236C416.22 80.9378 416.12 81.2249 416.12 81.585C416.12 81.7809 416.15 81.9609 416.209 82.125C416.273 82.2845 416.355 82.4349 416.455 82.5762C416.555 82.7129 416.701 82.8952 416.893 83.123L417.07 83.335ZM416.708 89.0361C417.1 89.0361 417.485 88.9131 417.863 88.667C418.246 88.4209 418.645 88.0814 419.06 87.6484L416.824 84.7363C416.364 85.0781 416.006 85.3607 415.751 85.584C415.496 85.8073 415.291 86.0465 415.136 86.3018C414.981 86.557 414.903 86.8372 414.903 87.1426C414.903 87.457 414.983 87.7624 415.143 88.0586C415.307 88.3503 415.525 88.5872 415.799 88.7695C416.077 88.9473 416.38 89.0361 416.708 89.0361Z" fill="#63666A"/>
<path d="M421.555 96.5V97.6211L416.318 107H414.924L420.276 97.6211H414.473V96.5H421.555Z" fill="#63666A"/>
<rect x="446" y="68" width="52" height="52" rx="6" fill="#F2F2F2"/>
<path d="M470.537 83.3076L471.843 81.5576L469.642 81.7695V81.127L471.843 81.3594L470.537 79.582L471.098 79.2744L471.993 81.25L472.875 79.2744L473.449 79.582L472.137 81.3594L474.331 81.127V81.7695L472.137 81.5576L473.449 83.3076L472.875 83.6426L471.993 81.6533L471.098 83.6426L470.537 83.3076Z" fill="#63666A"/>
<path d="M471.891 107.137C471.212 107.137 470.596 107.009 470.045 106.754C469.493 106.494 469.058 106.13 468.739 105.66C468.42 105.186 468.261 104.639 468.261 104.02C468.261 103.345 468.45 102.769 468.828 102.29C469.206 101.807 469.733 101.463 470.407 101.258C469.929 101.053 469.56 100.761 469.3 100.383C469.04 100 468.91 99.5511 468.91 99.0361C468.91 98.512 469.042 98.0472 469.307 97.6416C469.571 97.236 469.929 96.9215 470.38 96.6982C470.836 96.4749 471.339 96.3633 471.891 96.3633C472.438 96.3633 472.939 96.4749 473.395 96.6982C473.85 96.9215 474.21 97.236 474.475 97.6416C474.739 98.0472 474.871 98.512 474.871 99.0361C474.871 99.5511 474.739 100 474.475 100.383C474.215 100.761 473.848 101.053 473.374 101.258C474.044 101.467 474.568 101.812 474.946 102.29C475.325 102.769 475.514 103.345 475.514 104.02C475.514 104.639 475.354 105.186 475.035 105.66C474.716 106.13 474.281 106.494 473.729 106.754C473.183 107.009 472.57 107.137 471.891 107.137ZM471.891 100.813C472.251 100.813 472.565 100.738 472.834 100.588C473.107 100.438 473.317 100.232 473.463 99.9727C473.609 99.7129 473.682 99.4235 473.682 99.1045C473.682 98.79 473.609 98.5098 473.463 98.2637C473.317 98.0176 473.11 97.8262 472.841 97.6895C472.572 97.5482 472.255 97.4775 471.891 97.4775C471.526 97.4775 471.209 97.5482 470.94 97.6895C470.672 97.8262 470.464 98.0176 470.318 98.2637C470.173 98.5098 470.1 98.79 470.1 99.1045C470.1 99.4235 470.173 99.7129 470.318 99.9727C470.464 100.232 470.672 100.438 470.94 100.588C471.214 100.738 471.531 100.813 471.891 100.813ZM471.891 106.022C472.369 106.022 472.791 105.94 473.155 105.776C473.524 105.608 473.812 105.368 474.017 105.059C474.222 104.749 474.324 104.384 474.324 103.965C474.324 103.541 474.219 103.176 474.01 102.871C473.805 102.566 473.518 102.333 473.148 102.174C472.784 102.014 472.365 101.935 471.891 101.935C471.417 101.935 470.995 102.014 470.626 102.174C470.257 102.333 469.967 102.566 469.758 102.871C469.553 103.176 469.45 103.541 469.45 103.965C469.45 104.384 469.553 104.749 469.758 105.059C469.967 105.368 470.255 105.608 470.619 105.776C470.988 105.94 471.412 106.022 471.891 106.022Z" fill="#63666A"/>
<rect x="500" y="68" width="52" height="52" rx="6" fill="#F2F2F2"/>
<path d="M527.408 93.1514C526.825 92.7731 526.317 92.2331 525.884 91.5312C525.455 90.834 525.123 89.984 524.886 88.9814C524.653 87.9743 524.537 86.8395 524.537 85.5771C524.537 84.333 524.656 83.2051 524.893 82.1934C525.13 81.1816 525.462 80.3226 525.891 79.6162C526.324 78.9053 526.829 78.363 527.408 77.9893L527.921 78.6865C527.146 79.2243 526.54 80.0788 526.103 81.25C525.665 82.4167 525.446 83.859 525.446 85.5771C525.446 87.318 525.663 88.765 526.096 89.918C526.533 91.0664 527.142 91.9049 527.921 92.4336L527.408 93.1514Z" fill="#63666A"/>
<path d="M529.685 99.8018C529.721 100.695 529.423 101.536 528.789 102.324L525.077 107H523.607L526.677 103.343C526.399 103.448 526.062 103.5 525.665 103.5C525.168 103.5 524.658 103.352 524.134 103.056C523.614 102.759 523.181 102.342 522.835 101.805C522.489 101.262 522.315 100.649 522.315 99.9658C522.315 99.3324 522.475 98.7422 522.794 98.1953C523.118 97.6439 523.553 97.2064 524.1 96.8828C524.646 96.5547 525.239 96.3906 525.877 96.3906C526.551 96.3906 527.174 96.5387 527.743 96.835C528.317 97.1312 528.778 97.5391 529.124 98.0586C529.47 98.5781 529.657 99.1592 529.685 99.8018ZM526 102.495C526.501 102.495 526.941 102.383 527.319 102.16C527.702 101.937 527.996 101.636 528.201 101.258C528.411 100.875 528.516 100.451 528.516 99.9863C528.516 99.4987 528.402 99.0703 528.174 98.7012C527.951 98.332 527.638 98.0495 527.237 97.8535C526.841 97.653 526.392 97.5527 525.891 97.5527C525.43 97.5527 525.016 97.6598 524.646 97.874C524.277 98.0882 523.988 98.3776 523.778 98.7422C523.573 99.1068 523.471 99.5055 523.471 99.9385L523.478 100.096C523.505 100.574 523.635 100.996 523.867 101.36C524.104 101.72 524.41 102.001 524.783 102.201C525.157 102.397 525.562 102.495 526 102.495Z" fill="#63666A"/>
<rect x="554" y="68" width="52" height="52" rx="6" fill="#F2F2F2"/>
<path d="M578.079 92.4336C578.858 91.9049 579.465 91.0664 579.897 89.918C580.335 88.765 580.554 87.318 580.554 85.5771C580.554 83.859 580.335 82.4167 579.897 81.25C579.46 80.0788 578.854 79.2243 578.079 78.6865L578.592 77.9893C579.171 78.363 579.674 78.9053 580.103 79.6162C580.535 80.3226 580.87 81.1816 581.107 82.1934C581.344 83.2051 581.463 84.333 581.463 85.5771C581.463 86.8395 581.344 87.9743 581.107 88.9814C580.875 89.984 580.542 90.834 580.109 91.5312C579.681 92.2331 579.175 92.7731 578.592 93.1514L578.079 92.4336Z" fill="#63666A"/>
<path d="M580 107.137C579.271 107.137 578.619 106.929 578.045 106.515C577.475 106.095 577.029 105.482 576.705 104.676C576.382 103.865 576.22 102.889 576.22 101.75C576.22 100.602 576.372 99.624 576.678 98.8174C576.988 98.0107 577.425 97.4001 577.99 96.9854C578.555 96.5706 579.225 96.3633 580 96.3633C580.77 96.3633 581.438 96.5706 582.003 96.9854C582.573 97.4001 583.01 98.0107 583.315 98.8174C583.625 99.624 583.78 100.602 583.78 101.75C583.78 102.885 583.616 103.858 583.288 104.669C582.965 105.48 582.518 106.095 581.948 106.515C581.379 106.929 580.729 107.137 580 107.137ZM580.014 106.022C580.547 106.022 581.005 105.865 581.388 105.551C581.775 105.236 582.071 104.76 582.276 104.122C582.486 103.484 582.591 102.693 582.591 101.75C582.591 100.255 582.356 99.1706 581.887 98.4961C581.422 97.8171 580.798 97.4775 580.014 97.4775C579.225 97.4775 578.596 97.8171 578.127 98.4961C577.658 99.1706 577.423 100.255 577.423 101.75C577.423 102.693 577.525 103.484 577.73 104.122C577.94 104.76 578.239 105.236 578.626 105.551C579.013 105.865 579.476 106.022 580.014 106.022Z" fill="#63666A"/>
<rect x="608" y="68" width="52" height="52" rx="6" fill="#F2F2F2"/>
<path d="M631.546 85.9121H636.447V86.8076H631.546V85.9121Z" fill="#63666A"/>
<path d="M630.5 107H637.5V107.896H630.5V107Z" fill="#63666A"/>
<rect x="662" y="68" width="52" height="52" rx="6" fill="#F2F2F2"/>
<path d="M687.453 85.9258H684.664V84.832H687.453V82.0498H688.54V84.832H691.329V85.9258H688.54V88.7148H687.453V85.9258Z" fill="#63666A"/>
<path d="M685.525 100.403H690.468V101.497H685.525V100.403ZM685.525 103.247H690.468V104.327H685.525V103.247Z" fill="#63666A"/>
<rect x="648" y="122" width="52" height="52" rx="6" fill="#F2F2F2"/>
<path d="M674.923 147.5C674.654 147.5 674.408 147.42 674.185 147.261C673.966 147.106 673.793 146.892 673.665 146.618C673.542 146.345 673.48 146.042 673.48 145.709V142.305C673.48 141.84 673.455 141.475 673.405 141.211C673.36 140.947 673.264 140.723 673.118 140.541C672.972 140.354 672.744 140.186 672.435 140.035V139.283C672.74 139.137 672.965 138.971 673.111 138.784C673.262 138.593 673.36 138.365 673.405 138.101C673.455 137.836 673.48 137.474 673.48 137.014V133.623C673.48 133.286 673.542 132.98 673.665 132.707C673.793 132.429 673.966 132.213 674.185 132.058C674.403 131.898 674.649 131.818 674.923 131.818H675.538V132.646H675.162C674.884 132.646 674.686 132.75 674.567 132.96C674.449 133.165 674.39 133.47 674.39 133.876V137.212C674.39 137.595 674.365 137.93 674.314 138.217C674.269 138.499 674.175 138.764 674.034 139.01C673.897 139.256 673.695 139.472 673.426 139.659C673.695 139.846 673.897 140.062 674.034 140.309C674.175 140.555 674.269 140.821 674.314 141.108C674.365 141.396 674.39 141.73 674.39 142.113V145.456C674.39 145.862 674.449 146.162 674.567 146.358C674.686 146.559 674.884 146.659 675.162 146.659H675.538V147.5H674.923Z" fill="#63666A"/>
<path d="M672.981 148.818H675.798V149.7H673.993V163.618H675.798V164.5H672.981V148.818Z" fill="#63666A"/>
<rect x="608" y="176" width="52" height="52" rx="6" fill="#F2F2F2"/>
<path d="M633.993 192.429C633.784 192.429 633.601 192.354 633.446 192.203C633.291 192.048 633.214 191.861 633.214 191.643C633.214 191.506 633.248 191.378 633.316 191.26C633.389 191.137 633.485 191.041 633.604 190.973C633.727 190.9 633.856 190.863 633.993 190.863C634.13 190.863 634.257 190.9 634.376 190.973C634.499 191.041 634.597 191.137 634.67 191.26C634.743 191.378 634.779 191.506 634.779 191.643C634.779 191.861 634.702 192.048 634.547 192.203C634.392 192.354 634.207 192.429 633.993 192.429ZM633.993 198.137C633.784 198.137 633.601 198.062 633.446 197.911C633.291 197.756 633.214 197.572 633.214 197.357C633.214 197.221 633.248 197.093 633.316 196.975C633.389 196.852 633.485 196.754 633.604 196.681C633.727 196.608 633.856 196.571 633.993 196.571C634.207 196.571 634.392 196.649 634.547 196.804C634.702 196.959 634.779 197.143 634.779 197.357C634.779 197.572 634.702 197.756 634.547 197.911C634.392 198.062 634.207 198.137 633.993 198.137Z" fill="#63666A"/>
<path d="M634.178 209.429C633.964 209.429 633.779 209.354 633.624 209.203C633.474 209.048 633.398 208.861 633.398 208.643C633.398 208.433 633.474 208.251 633.624 208.096C633.779 207.941 633.964 207.863 634.178 207.863C634.314 207.863 634.442 207.9 634.561 207.973C634.684 208.041 634.782 208.137 634.854 208.26C634.927 208.378 634.964 208.506 634.964 208.643C634.964 208.861 634.886 209.048 634.731 209.203C634.576 209.354 634.392 209.429 634.178 209.429ZM633.562 213.291H634.882L633.733 217.577H632.879L633.562 213.291Z" fill="#63666A"/>
<rect x="514" y="230" width="52" height="52" rx="6" fill="#F2F2F2"/>
<path d="M543.76 243.756L537.177 247.071L543.76 250.407V251.638L536.035 247.728V246.429L543.76 242.553V243.756Z" fill="#63666A"/>
<path d="M539.118 271.577L539.802 267.291H541.114L539.966 271.577H539.118Z" fill="#63666A"/>
<rect x="568" y="230" width="52" height="52" rx="6" fill="#F2F2F2"/>
<path d="M597.958 246.429V247.728L590.233 251.638V250.407L596.816 247.071L590.233 243.756V242.553L597.958 246.429Z" fill="#63666A"/>
<path d="M594 269.137C593.786 269.137 593.601 269.062 593.446 268.911C593.291 268.756 593.214 268.572 593.214 268.357C593.214 268.143 593.291 267.959 593.446 267.804C593.606 267.649 593.79 267.571 594 267.571C594.137 267.571 594.264 267.608 594.383 267.681C594.506 267.754 594.602 267.852 594.67 267.975C594.743 268.093 594.779 268.221 594.779 268.357C594.779 268.572 594.702 268.756 594.547 268.911C594.392 269.062 594.21 269.137 594 269.137Z" fill="#63666A"/>
<rect x="622" y="230" width="52" height="52" rx="6" fill="#F2F2F2"/>
<path d="M647.398 246.203H647.617C648.082 246.203 648.472 246.169 648.786 246.101C649.105 246.028 649.374 245.854 649.593 245.581C649.816 245.308 649.928 244.891 649.928 244.33C649.928 243.97 649.841 243.649 649.668 243.366C649.499 243.079 649.262 242.856 648.957 242.696C648.652 242.532 648.305 242.45 647.918 242.45C647.549 242.45 647.216 242.532 646.92 242.696C646.624 242.856 646.387 243.079 646.209 243.366C646.036 243.653 645.942 243.975 645.929 244.33H644.89C644.894 243.788 645.029 243.298 645.293 242.86C645.557 242.418 645.92 242.072 646.38 241.821C646.84 241.571 647.353 241.445 647.918 241.445C648.497 241.445 649.016 241.571 649.477 241.821C649.941 242.067 650.304 242.409 650.563 242.847C650.823 243.284 650.953 243.779 650.953 244.33C650.953 245.018 650.812 245.565 650.529 245.971C650.251 246.376 649.921 246.657 649.538 246.812C649.16 246.966 648.795 247.044 648.444 247.044V249.061H647.398V246.203ZM647.973 252.137C647.758 252.137 647.574 252.062 647.419 251.911C647.264 251.756 647.187 251.572 647.187 251.357C647.187 251.143 647.264 250.959 647.419 250.804C647.578 250.649 647.763 250.571 647.973 250.571C648.187 250.571 648.369 250.649 648.52 250.804C648.674 250.959 648.752 251.143 648.752 251.357C648.752 251.572 648.674 251.756 648.52 251.911C648.369 252.062 648.187 252.137 647.973 252.137Z" fill="#63666A"/>
<path d="M650.844 258.5H651.951L645.163 271.379H644.042L650.844 258.5Z" fill="#63666A"/>
<rect x="662" y="176" width="52" height="52" rx="6" fill="#F2F2F2"/>
<path d="M687.624 187.5L686.94 191.786H685.628L686.776 187.5H687.624ZM690.133 187.5L689.449 191.786H688.137L689.285 187.5H690.133Z" fill="#63666A"/>
<path d="M688.882 204.5L688.198 208.786H686.886L688.034 204.5H688.882Z" fill="#63666A"/>
<rect x="702" y="122" width="52" height="52" rx="6" fill="#F2F2F2"/>
<path d="M726.462 147.5V146.659H726.838C727.116 146.659 727.314 146.559 727.433 146.358C727.551 146.162 727.61 145.862 727.61 145.456V142.113C727.61 141.73 727.633 141.396 727.679 141.108C727.729 140.821 727.822 140.555 727.959 140.309C728.1 140.062 728.305 139.846 728.574 139.659C728.305 139.472 728.1 139.256 727.959 139.01C727.822 138.764 727.729 138.499 727.679 138.217C727.633 137.93 727.61 137.595 727.61 137.212V133.876C727.61 133.47 727.551 133.165 727.433 132.96C727.314 132.75 727.116 132.646 726.838 132.646H726.462V131.818H727.077C727.351 131.818 727.597 131.898 727.815 132.058C728.034 132.213 728.205 132.429 728.328 132.707C728.456 132.98 728.52 133.286 728.52 133.623V137.014C728.52 137.474 728.542 137.836 728.588 138.101C728.638 138.365 728.736 138.593 728.882 138.784C729.032 138.971 729.26 139.137 729.565 139.283V140.035C729.256 140.186 729.028 140.354 728.882 140.541C728.736 140.723 728.638 140.947 728.588 141.211C728.542 141.475 728.52 141.84 728.52 142.305V145.709C728.52 146.042 728.456 146.345 728.328 146.618C728.205 146.892 728.032 147.106 727.809 147.261C727.59 147.42 727.346 147.5 727.077 147.5H726.462Z" fill="#63666A"/>
<path d="M726.195 164.5V163.618H728V149.7H726.195V148.818H729.012V164.5H726.195Z" fill="#63666A"/>
<rect x="14" y="68" width="52" height="52" rx="6" fill="#F2F2F2"/>
<path d="M41.4697 87.6621C41.1644 87.6621 40.891 87.6074 40.6494 87.498C40.4079 87.3841 40.2096 87.2565 40.0547 87.1152C39.8997 86.974 39.7311 86.8008 39.5488 86.5957C39.3802 86.4043 39.2253 86.2653 39.084 86.1787C38.9473 86.0921 38.7946 86.0488 38.626 86.0488C38.4027 86.0488 38.2067 86.1149 38.0381 86.2471C37.874 86.3792 37.7487 86.5592 37.6621 86.7871C37.5801 87.0104 37.5413 87.2565 37.5459 87.5254H36.5273C36.5228 87.4844 36.5205 87.4206 36.5205 87.334C36.5205 86.8783 36.6071 86.4772 36.7803 86.1309C36.958 85.7845 37.2064 85.5156 37.5254 85.3242C37.849 85.1283 38.2204 85.0303 38.6396 85.0303C39.0088 85.0303 39.3232 85.1123 39.583 85.2764C39.8428 85.4359 40.1162 85.6888 40.4033 86.0352C40.5674 86.2402 40.7201 86.3952 40.8613 86.5C41.0072 86.6048 41.1826 86.6572 41.3877 86.6572C41.5837 86.6572 41.7614 86.6048 41.9209 86.5C42.0804 86.3906 42.2057 86.2357 42.2969 86.0352C42.3926 85.8346 42.4404 85.6022 42.4404 85.3379L42.4336 85.2012H43.459C43.4635 85.2559 43.4658 85.3333 43.4658 85.4336C43.4658 85.8529 43.3792 86.2334 43.2061 86.5752C43.0374 86.9124 42.8005 87.179 42.4951 87.375C42.1943 87.5664 41.8525 87.6621 41.4697 87.6621Z" fill="#63666A"/>
<path d="M37.1152 97.0059L37.7988 96.4727L39.5898 98.667H38.6943L37.1152 97.0059Z" fill="#63666A"/>
<rect x="68" y="284" width="52" height="52" rx="6" fill="#F2F2F2"/>
<path d="M78.8031 295.354C78.1263 295.354 77.6957 295.799 77.6957 296.612V297.761H79.6097V298.745H77.6957V305H76.6019V298.745H75.3851V297.761H76.6019V296.489C76.6019 295.184 77.4154 294.363 78.6322 294.363C78.9398 294.363 79.2611 294.418 79.6097 294.514V295.525C79.3158 295.409 79.0492 295.354 78.8031 295.354ZM83.9645 297.624C85.5778 297.624 86.8629 298.656 86.8629 300.803V305H85.7692V300.885C85.7692 299.244 84.9489 298.629 83.8278 298.629C82.7067 298.629 81.8248 299.367 81.8112 300.816V305H80.7174V297.761H81.8112V298.793C82.2623 298.034 83.0143 297.624 83.9645 297.624Z" fill="#63666A"/>
<rect x="14" y="176" width="106" height="52" rx="6" fill="#F2F2F2"/>
<path d="M22.3966 197V186.5H23.4903V197H22.3966ZM28.7543 197.137C26.6556 197.137 24.974 195.462 24.974 193.377C24.974 191.299 26.6556 189.624 28.7543 189.624C30.8529 189.624 32.5345 191.299 32.5345 193.377C32.5345 195.462 30.8529 197.137 28.7543 197.137ZM28.7543 196.077C30.2377 196.077 31.4408 194.874 31.4408 193.377C31.4408 191.887 30.2377 190.684 28.7543 190.684C27.2572 190.684 26.0677 191.887 26.0677 193.377C26.0677 194.874 27.2572 196.077 28.7543 196.077ZM37.1832 197.123C35.0846 197.123 33.403 195.462 33.403 193.377C33.403 191.285 35.0846 189.624 37.1832 189.624C38.4684 189.624 39.6032 190.253 40.2936 191.217L39.3981 191.873C38.9196 191.148 38.1334 190.684 37.1832 190.684C35.6588 190.684 34.4967 191.859 34.4967 193.377C34.4967 194.888 35.6588 196.063 37.1832 196.063C38.1334 196.063 38.9196 195.599 39.3981 194.874L40.2936 195.53C39.6032 196.494 38.4684 197.123 37.1832 197.123ZM47.6904 197H46.207L42.6796 193.247V197H41.5859V186.5H42.6796V192.946L45.6601 189.761H47.1435L43.9374 193.042L47.6904 197Z" fill="#63666A"/>
<rect x="122" y="284" width="52" height="52" rx="6" fill="#F2F2F2"/>
<path d="M133.604 305.137C131.649 305.137 129.967 303.462 129.967 301.377C129.967 299.299 131.649 297.624 133.604 297.624C134.828 297.624 135.805 298.137 136.434 298.95V297.761H137.528V305H136.434V303.811C135.805 304.624 134.828 305.137 133.604 305.137ZM133.748 304.077C135.245 304.077 136.434 302.874 136.434 301.377C136.434 299.887 135.245 298.684 133.748 298.684C132.264 298.684 131.061 299.887 131.061 301.377C131.061 302.874 132.264 304.077 133.748 304.077ZM139.627 305V294.5H140.721V305H139.627ZM146.094 298.745H144.18V302.888C144.18 303.626 144.624 304.05 145.267 304.05H146.094V305H145.144C143.941 305 143.086 304.316 143.086 303.011V298.745H141.869V297.761H143.086V295.758H144.18V297.761H146.094V298.745Z" fill="#63666A"/>
<rect x="176" y="284" width="66" height="52" rx="6" fill="#F2F2F2"/>
<path d="M193.933 297.761H195.123L192.368 305H191.677L189.374 299.593L187.063 305H186.373L183.618 297.761H184.807L186.79 303.223L189.093 297.761H189.647L191.951 303.223L193.933 297.761ZM196.812 295.915C196.395 295.915 196.025 295.566 196.025 295.143C196.025 294.698 196.395 294.363 196.812 294.363C197.229 294.363 197.598 294.698 197.598 295.143C197.598 295.566 197.229 295.915 196.812 295.915ZM196.265 305V297.761H197.358V305H196.265ZM202.704 297.624C204.318 297.624 205.603 298.656 205.603 300.803V305H204.509V300.885C204.509 299.244 203.689 298.629 202.568 298.629C201.447 298.629 200.565 299.367 200.551 300.816V305H199.457V297.761H200.551V298.793C201.002 298.034 201.754 297.624 202.704 297.624Z" fill="#63666A"/>
<rect x="122" y="176" width="52" height="52" rx="6" fill="#F2F2F2"/>
<path d="M151.657 207L150.7 204.621H145.307L144.35 207H143.126L147.453 196.5H148.547L152.874 207H151.657ZM145.765 203.5H150.249L148.007 197.929L145.765 203.5Z" fill="#63666A"/>
<rect x="176" y="176" width="52" height="52" rx="6" fill="#F2F2F2"/>
<path d="M202.096 207.137C200.612 207.137 199.293 206.412 198.555 205.489L199.409 204.635C200.038 205.503 200.893 206.063 202.014 206.063C203.23 206.063 204.153 205.359 204.153 204.272C204.153 203.069 203.046 202.591 201.87 202.099C200.428 201.497 199.061 200.896 199.061 199.118C199.061 197.423 200.332 196.363 201.973 196.363C203.326 196.363 204.324 196.992 205.008 197.785L204.283 198.544C203.456 197.676 202.813 197.437 202 197.437C201.029 197.437 200.195 197.997 200.195 199.036C200.195 200.226 201.323 200.656 202.533 201.148C203.859 201.695 205.288 202.338 205.288 204.225C205.288 206.132 203.832 207.137 202.096 207.137Z" fill="#63666A"/>
<rect x="230" y="176" width="52" height="52" rx="6" fill="#F2F2F2"/>
<path d="M252.117 207V196.5H255.296C258.611 196.5 260.546 198.571 260.546 201.75C260.546 204.929 258.611 207 255.296 207H252.117ZM253.293 205.879H255.282C257.982 205.879 259.356 204.368 259.356 201.75C259.356 199.132 257.982 197.621 255.282 197.621H253.293V205.879Z" fill="#63666A"/>
<rect x="284" y="176" width="52" height="52" rx="6" fill="#F2F2F2"/>
<path d="M313.356 197.621H308.776V201.189H312.769V202.311H308.776V207H307.587V196.5H313.356V197.621Z" fill="#63666A"/>
<rect x="338" y="176" width="52" height="52" rx="6" fill="#F2F2F2"/>
<path d="M369.476 201.511V201.736C369.476 204.73 367.076 207.137 364.082 207.137C361.102 207.137 358.695 204.73 358.695 201.75C358.695 198.77 361.102 196.363 364.082 196.363C366.003 196.363 367.678 197.354 368.635 198.852L367.596 199.439C366.857 198.305 365.565 197.553 364.082 197.553C361.758 197.553 359.885 199.412 359.885 201.75C359.885 204.088 361.758 205.947 364.082 205.947C366.126 205.947 367.794 204.546 368.197 202.632H365.271V201.511H369.476Z" fill="#63666A"/>
<rect x="392" y="176" width="52" height="52" rx="6" fill="#F2F2F2"/>
<path d="M420.851 196.5H422.04V207H420.851V202.297H415.149V207H413.96V196.5H415.149V201.189H420.851V196.5Z" fill="#63666A"/>
<rect x="446" y="176" width="52" height="52" rx="6" fill="#F2F2F2"/>
<path d="M470.872 207.137C470.1 207.137 469.341 206.945 468.726 206.583L469.272 205.517C469.724 205.824 470.421 205.975 470.954 205.975C472.355 205.975 473.135 204.901 473.135 203.637V196.5H474.324V203.835C474.324 205.756 472.916 207.137 470.872 207.137Z" fill="#63666A"/>
<rect x="500" y="176" width="52" height="52" rx="6" fill="#F2F2F2"/>
<path d="M530.156 207H528.646L524.161 201.572V207H522.972V196.5H524.161V201.019L528.194 196.5H529.705L525.364 201.285L530.156 207Z" fill="#63666A"/>
<rect x="554" y="176" width="52" height="52" rx="6" fill="#F2F2F2"/>
<path d="M579.187 205.879H583.069V207H577.997V196.5H579.187V205.879Z" fill="#63666A"/>
<rect x="716" y="68" width="106" height="52" rx="6" fill="#F2F2F2"/>
<path d="M728.587 89.1367C727.363 89.1367 726.386 88.624 725.757 87.8105V89H724.663V78.5H725.757V82.9502C726.386 82.1367 727.363 81.624 728.587 81.624C730.542 81.624 732.224 83.2988 732.224 85.377C732.224 87.4619 730.542 89.1367 728.587 89.1367ZM728.443 88.0771C729.927 88.0771 731.13 86.874 731.13 85.377C731.13 83.8867 729.927 82.6836 728.443 82.6836C726.946 82.6836 725.757 83.8867 725.757 85.377C725.757 86.874 726.946 88.0771 728.443 88.0771ZM736.729 89.1367C734.774 89.1367 733.092 87.4619 733.092 85.377C733.092 83.2988 734.774 81.624 736.729 81.624C737.953 81.624 738.93 82.1367 739.559 82.9502V81.7607H740.653V89H739.559V87.8105C738.93 88.624 737.953 89.1367 736.729 89.1367ZM736.872 88.0771C738.369 88.0771 739.559 86.874 739.559 85.377C739.559 83.8867 738.369 82.6836 736.872 82.6836C735.389 82.6836 734.186 83.8867 734.186 85.377C734.186 86.874 735.389 88.0771 736.872 88.0771ZM745.917 89.123C743.818 89.123 742.136 87.4619 742.136 85.377C742.136 83.2852 743.818 81.624 745.917 81.624C747.202 81.624 748.337 82.2529 749.027 83.2168L748.131 83.873C747.653 83.1484 746.867 82.6836 745.917 82.6836C744.392 82.6836 743.23 83.8594 743.23 85.377C743.23 86.8877 744.392 88.0635 745.917 88.0635C746.867 88.0635 747.653 87.5986 748.131 86.874L749.027 87.5303C748.337 88.4941 747.202 89.123 745.917 89.123ZM756.424 89H754.94L751.413 85.2471V89H750.319V78.5H751.413V84.9463L754.393 81.7607H755.877L752.671 85.042L756.424 89Z" fill="#63666A"/>
<rect x="716" y="176" width="106" height="52" rx="6" fill="#F2F2F2"/>
<path d="M731.524 193.288L731.51 193.5H725.009C725.057 194.983 726.288 196.146 727.757 196.146C728.694 196.146 729.548 195.681 730.054 194.915L730.977 195.305C730.321 196.439 729.131 197.137 727.771 197.137C725.645 197.137 723.991 195.462 723.991 193.377C723.991 191.299 725.659 189.624 727.757 189.624C729.829 189.624 731.456 191.217 731.524 193.288ZM727.757 190.615C726.493 190.615 725.447 191.442 725.119 192.618H730.375C730.047 191.456 729.029 190.615 727.757 190.615ZM736.132 189.624C737.745 189.624 739.03 190.656 739.03 192.803V197H737.936V192.885C737.936 191.244 737.116 190.629 735.995 190.629C734.874 190.629 733.992 191.367 733.978 192.816V197H732.884V189.761H733.978V190.793C734.429 190.034 735.181 189.624 736.132 189.624ZM744.219 190.745H742.305V194.888C742.305 195.626 742.749 196.05 743.392 196.05H744.219V197H743.269C742.065 197 741.211 196.316 741.211 195.011V190.745H739.994V189.761H741.211V187.758H742.305V189.761H744.219V190.745ZM752.395 193.288L752.381 193.5H745.88C745.928 194.983 747.158 196.146 748.628 196.146C749.565 196.146 750.419 195.681 750.925 194.915L751.848 195.305C751.192 196.439 750.002 197.137 748.642 197.137C746.516 197.137 744.862 195.462 744.862 193.377C744.862 191.299 746.53 189.624 748.628 189.624C750.699 189.624 752.326 191.217 752.395 193.288ZM748.628 190.615C747.364 190.615 746.318 191.442 745.99 192.618H751.246C750.918 191.456 749.9 190.615 748.628 190.615ZM754.849 190.93C755.328 190.15 756.21 189.692 757.385 189.692V190.745C755.943 190.745 754.849 191.271 754.849 193.035V197H753.755V189.761H754.849V190.93Z" fill="#63666A"/>
<rect x="108" y="122" width="52" height="52" rx="6" fill="#F2F2F2"/>
<path d="M139.544 153L138.478 153.533L137.049 152.111C136.16 152.754 135.066 153.137 133.884 153.137C130.903 153.137 128.497 150.73 128.497 147.75C128.497 144.77 130.903 142.363 133.884 142.363C136.864 142.363 139.277 144.77 139.277 147.75C139.277 149.145 138.751 150.416 137.876 151.373L139.544 153ZM133.884 151.947C134.745 151.947 135.538 151.694 136.201 151.264L134.096 149.165L135.114 148.673L137.035 150.546C137.691 149.808 138.088 148.83 138.088 147.75C138.088 145.412 136.222 143.553 133.884 143.553C131.56 143.553 129.687 145.412 129.687 147.75C129.687 150.088 131.56 151.947 133.884 151.947Z" fill="#63666A"/>
<rect x="95" y="14" width="52" height="52" rx="6" fill="#F2F2F2"/>
<path d="M120.087 35.6211H115.507V39.1895H119.499V40.3105H115.507V45H114.318V34.5H120.087V35.6211ZM125.515 43.8789H127.812V45H122.043V43.8789H124.339V35.9902L122.043 37.7881V36.4756L124.558 34.5H125.515V43.8789Z" fill="#63666A"/>
<rect x="162" y="122" width="52" height="52" rx="6" fill="#F2F2F2"/>
<path d="M184.281 153L180.966 142.5H182.183L184.773 150.744L187.419 142.5H188.581L191.227 150.744L193.817 142.5H195.034L191.712 153H190.816L188.007 144.291L185.177 153H184.281Z" fill="#63666A"/>
<rect x="149" y="14" width="52" height="52" rx="6" fill="#F2F2F2"/>
<path d="M174.087 35.6211H169.507V39.1895H173.499V40.3105H169.507V45H168.318V34.5H174.087V35.6211ZM177.109 43.8789H182.27V45H175.441V43.9609C179.85 40.1123 180.52 38.5605 180.52 37.4121C180.52 36.0381 179.652 35.4639 178.647 35.4639C177.458 35.4639 176.726 36.2637 176.726 37.4805L175.441 37.4668C175.441 35.5938 176.87 34.3291 178.702 34.3428C180.438 34.3633 181.71 35.5049 181.71 37.1865C181.71 39.3604 179.556 41.9033 177.109 43.8789Z" fill="#63666A"/>
<rect x="216" y="122" width="52" height="52" rx="6" fill="#F2F2F2"/>
<path d="M245.24 143.621H240.66V147.203H244.652V148.324H240.66V151.879H245.24V153H239.471V142.5H245.24V143.621Z" fill="#63666A"/>
<rect x="203" y="14" width="52" height="52" rx="6" fill="#F2F2F2"/>
<path d="M228.087 35.6211H223.507V39.1895H227.499V40.3105H223.507V45H222.318V34.5H228.087V35.6211ZM234.144 39.2578C235.47 39.668 236.284 40.6592 236.284 42.0195C236.284 43.9199 234.691 45.1367 232.661 45.1367C230.685 45.1367 229.086 43.9199 229.086 42.0879L230.282 42.0742C230.282 43.2773 231.314 44.0225 232.661 44.0225C234.089 44.0225 235.094 43.25 235.094 41.9648C235.094 40.6592 234.076 39.9346 232.661 39.9346H231.622V38.8135H232.661C233.768 38.8135 234.452 38.0547 234.452 37.1045C234.452 36.1543 233.768 35.4775 232.661 35.4775C231.54 35.4775 230.795 36.1133 230.795 37.0225H229.605C229.605 35.4365 230.938 34.3633 232.661 34.3633C234.308 34.3633 235.641 35.4229 235.641 37.0361C235.641 38.082 235.081 38.8545 234.144 39.2578Z" fill="#63666A"/>
<rect x="270" y="122" width="52" height="52" rx="6" fill="#F2F2F2"/>
<path d="M298.987 153L296.342 148.338H293.915V153H292.726V142.5H296.663C298.297 142.5 299.603 143.819 299.603 145.439C299.603 146.793 298.714 147.887 297.483 148.229L300.272 153H298.987ZM293.915 143.621V147.217H296.547C297.586 147.217 298.413 146.588 298.413 145.453C298.413 144.359 297.586 143.621 296.547 143.621H293.915Z" fill="#63666A"/>
<rect x="257" y="14" width="52" height="52" rx="6" fill="#F2F2F2"/>
<path d="M282.087 35.6211H277.507V39.1895H281.499V40.3105H277.507V45H276.318V34.5H282.087V35.6211ZM290.831 41.6709V42.7852H288.971V45H287.782V42.7852H282.71V42.0195L287.488 34.5H288.971V41.6709H290.831ZM284.131 41.6709H287.782V35.7236L284.131 41.6709Z" fill="#63666A"/>
<rect x="324" y="122" width="52" height="52" rx="6" fill="#F2F2F2"/>
<path d="M353.473 142.5V143.621H350.588V153H349.398V143.621H346.514V142.5H353.473Z" fill="#63666A"/>
<rect x="311" y="14" width="52" height="52" rx="6" fill="#F2F2F2"/>
<path d="M336.087 35.6211H331.507V39.1895H335.499V40.3105H331.507V45H330.318V34.5H336.087V35.6211ZM340.435 38.4512C343.067 38.4512 344.243 39.7227 344.243 41.6094C344.243 43.7422 342.787 45.1094 340.702 45.1094C338.979 45.1094 337.325 44.0771 337.147 42.0469H338.405C338.631 43.4346 339.704 43.9951 340.715 43.9951C342.076 43.9951 343.053 43.1133 343.053 41.6709C343.053 40.3789 342.254 39.5654 340.504 39.5654H337.482L338.432 34.5H343.894V35.6211H339.376L338.849 38.4512H340.435Z" fill="#63666A"/>
<rect x="378" y="122" width="52" height="52" rx="6" fill="#F2F2F2"/>
<path d="M408.252 142.5L404.602 148.023V153H403.412V148.058L399.741 142.5H401.225L404.007 146.93L406.796 142.5H408.252Z" fill="#63666A"/>
<rect x="365" y="14" width="52" height="52" rx="6" fill="#F2F2F2"/>
<path d="M390.087 35.6211H385.507V39.1895H389.499V40.3105H385.507V45H384.318V34.5H390.087V35.6211ZM398.455 41.3906C398.537 43.3867 396.896 45.1094 394.9 45.1094C392.856 45.1094 391.174 43.667 391.086 41.6982C391.045 40.7139 391.427 39.873 391.988 39.1758L395.693 34.5H397.163L394.093 38.1572C394.339 38.0615 394.647 38 395.105 38C396.506 38 398.366 39.2988 398.455 41.3906ZM394.886 43.9473C396.356 43.9473 397.375 42.7852 397.293 41.4043C397.204 39.9346 396.089 39.0049 394.77 39.0049C393.177 39.0049 392.179 40.2148 392.268 41.6846C392.35 43.0791 393.43 43.9473 394.886 43.9473Z" fill="#63666A"/>
<rect x="432" y="122" width="52" height="52" rx="6" fill="#F2F2F2"/>
<path d="M457.993 153.137C455.696 153.137 454.028 151.626 454.028 149.555V142.5H455.218V149.288C455.218 151.209 456.38 152.022 457.993 152.022C459.606 152.022 460.782 151.209 460.782 149.288V142.5H461.972V149.555C461.972 151.626 460.304 153.137 457.993 153.137Z" fill="#63666A"/>
<rect x="419" y="14" width="52" height="52" rx="6" fill="#F2F2F2"/>
<path d="M444.087 35.6211H439.507V39.1895H443.499V40.3105H439.507V45H438.318V34.5H444.087V35.6211ZM445.243 34.5H452.325V35.6211L447.089 45H445.694L451.047 35.6211H445.243V34.5Z" fill="#63666A"/>
<rect x="486" y="122" width="52" height="52" rx="6" fill="#F2F2F2"/>
<path d="M511.405 153V142.5H512.595V153H511.405Z" fill="#63666A"/>
<rect x="473" y="14" width="52" height="52" rx="6" fill="#F2F2F2"/>
<path d="M498.087 35.6211H493.507V39.1895H497.499V40.3105H493.507V45H492.318V34.5H498.087V35.6211ZM502.661 45.1367C500.631 45.1367 499.031 43.9199 499.031 42.0195C499.031 40.6592 499.844 39.668 501.177 39.2578C500.234 38.8545 499.68 38.082 499.68 37.0361C499.68 35.4229 501.006 34.3633 502.661 34.3633C504.308 34.3633 505.641 35.4229 505.641 37.0361C505.641 38.082 505.081 38.8545 504.144 39.2578C505.47 39.668 506.284 40.6592 506.284 42.0195C506.284 43.9199 504.691 45.1367 502.661 45.1367ZM502.661 38.8135C503.768 38.8135 504.452 38.0547 504.452 37.1045C504.452 36.1543 503.768 35.4775 502.661 35.4775C501.553 35.4775 500.87 36.1543 500.87 37.1045C500.87 38.0547 501.553 38.8135 502.661 38.8135ZM502.661 44.0225C504.089 44.0225 505.094 43.25 505.094 41.9648C505.094 40.6592 504.076 39.9346 502.661 39.9346C501.246 39.9346 500.22 40.6592 500.22 41.9648C500.22 43.25 501.232 44.0225 502.661 44.0225Z" fill="#63666A"/>
<rect x="540" y="122" width="52" height="52" rx="6" fill="#F2F2F2"/>
<path d="M566 153.137C563.02 153.137 560.613 150.73 560.613 147.75C560.613 144.77 563.02 142.363 566 142.363C568.98 142.363 571.394 144.77 571.394 147.75C571.394 150.73 568.98 153.137 566 153.137ZM566 151.947C568.338 151.947 570.204 150.088 570.204 147.75C570.204 145.412 568.338 143.553 566 143.553C563.676 143.553 561.803 145.412 561.803 147.75C561.803 150.088 563.676 151.947 566 151.947Z" fill="#63666A"/>
<rect x="527" y="14" width="52" height="52" rx="6" fill="#F2F2F2"/>
<path d="M552.087 35.6211H547.507V39.1895H551.499V40.3105H547.507V45H546.318V34.5H552.087V35.6211ZM560.455 37.8018C560.496 38.7861 560.12 39.627 559.559 40.3242L555.847 45H554.378L557.447 41.3428C557.194 41.4385 556.893 41.5 556.435 41.5C555.034 41.5 553.174 40.2012 553.086 38.1094C553.004 36.1133 554.644 34.3906 556.647 34.3906C558.691 34.3906 560.366 35.833 560.455 37.8018ZM556.77 40.4951C558.37 40.4951 559.361 39.2852 559.279 37.8154C559.19 36.4209 558.117 35.5527 556.661 35.5527C555.191 35.5527 554.166 36.7148 554.248 38.0957C554.337 39.5654 555.458 40.4951 556.77 40.4951Z" fill="#63666A"/>
<rect x="594" y="122" width="52" height="52" rx="6" fill="#F2F2F2"/>
<path d="M620.861 142.5C622.782 142.5 624.081 143.929 624.081 145.692C624.081 147.47 622.782 148.857 620.861 148.857H617.977V153H616.787V142.5H620.861ZM620.752 147.791C622.064 147.791 622.892 147.005 622.892 145.706C622.892 144.448 622.064 143.566 620.752 143.566H617.977V147.791H620.752Z" fill="#63666A"/>
<rect x="581" y="14" width="52" height="52" rx="6" fill="#F2F2F2"/>
<path d="M601.818 35.6211H597.238V39.1895H601.23V40.3105H597.238V45H596.049V34.5H601.818V35.6211ZM607.246 43.8789H609.543V45H603.773V43.8789H606.07V35.9902L603.773 37.7881V36.4756L606.289 34.5H607.246V43.8789ZM615.039 45.1367C612.872 45.1367 611.259 43.25 611.259 39.75C611.259 36.25 612.729 34.3633 615.039 34.3633C617.336 34.3633 618.82 36.25 618.82 39.75C618.82 43.25 617.199 45.1367 615.039 45.1367ZM615.053 44.0225C616.639 44.0225 617.63 42.6348 617.63 39.75C617.63 36.585 616.495 35.4775 615.053 35.4775C613.597 35.4775 612.462 36.585 612.462 39.75C612.462 42.6348 613.46 44.0225 615.053 44.0225Z" fill="#63666A"/>
<rect x="635" y="14" width="52" height="52" rx="6" fill="#F2F2F2"/>
<path d="M655.818 35.6211H651.238V39.1895H655.23V40.3105H651.238V45H650.049V34.5H655.818V35.6211ZM661.246 43.8789H663.543V45H657.773V43.8789H660.07V35.9902L657.773 37.7881V36.4756L660.289 34.5H661.246V43.8789ZM669.784 43.8789H672.081V45H666.312V43.8789H668.609V35.9902L666.312 37.7881V36.4756L668.827 34.5H669.784V43.8789Z" fill="#63666A"/>
<rect x="689" y="14" width="52" height="52" rx="6" fill="#F2F2F2"/>
<path d="M709.818 35.6211H705.238V39.1895H709.23V40.3105H705.238V45H704.049V34.5H709.818V35.6211ZM715.246 43.8789H717.543V45H711.773V43.8789H714.07V35.9902L711.773 37.7881V36.4756L714.289 34.5H715.246V43.8789ZM721.378 43.8789H726.539V45H719.71V43.9609C724.119 40.1123 724.789 38.5605 724.789 37.4121C724.789 36.0381 723.921 35.4639 722.916 35.4639C721.727 35.4639 720.995 36.2637 720.995 37.4805L719.71 37.4668C719.71 35.5938 721.139 34.3291 722.971 34.3428C724.707 34.3633 725.979 35.5049 725.979 37.1865C725.979 39.3604 723.825 41.9033 721.378 43.8789Z" fill="#63666A"/>
<rect x="770" y="230" width="52" height="52" rx="6" fill="#F2F2F2"/>
<g clip-path="url(#clip0_2189_9931)">
<path d="M795.296 259.685L796.716 259.685L796.716 253.713L795.296 253.713L795.296 259.685Z" fill="#63666A"/>
<path d="M799.998 258.324L801.003 257.319L796.006 252.323L795.002 253.327L799.998 258.324Z" fill="#63666A"/>
<path d="M797.005 253.32L796.001 252.316L791.004 257.312L792.009 258.317L797.005 253.32Z" fill="#63666A"/>
</g>
<rect x="770" y="284" width="52" height="52" rx="6" fill="#F2F2F2"/>
<g clip-path="url(#clip1_2189_9931)">
<path d="M796.704 306.315L795.284 306.315L795.284 312.287L796.704 312.287L796.704 306.315Z" fill="#63666A"/>
<path d="M792.002 307.676L790.997 308.681L795.994 313.677L796.998 312.673L792.002 307.676Z" fill="#63666A"/>
<path d="M794.995 312.68L795.999 313.684L800.996 308.688L799.991 307.683L794.995 312.68Z" fill="#63666A"/>
</g>
<rect x="716" y="284" width="52" height="52" rx="6" fill="#F2F2F2"/>
<g clip-path="url(#clip2_2189_9931)">
<path d="M745.684 310.704V309.284H739.712V310.704H745.684Z" fill="#63666A"/>
<path d="M744.323 306.002L743.319 304.997L738.323 309.994L739.327 310.998L744.323 306.002Z" fill="#63666A"/>
<path d="M739.32 308.995L738.316 309.999L743.312 314.996L744.317 313.991L739.32 308.995Z" fill="#63666A"/>
</g>
<rect x="824" y="284" width="52" height="52" rx="6" fill="#F2F2F2"/>
<g clip-path="url(#clip3_2189_9931)">
<path d="M846.315 309.296L846.315 310.716L852.287 310.716L852.287 309.296L846.315 309.296Z" fill="#63666A"/>
<path d="M847.676 313.998L848.681 315.003L853.677 310.006L852.673 309.002L847.676 313.998Z" fill="#63666A"/>
<path d="M852.68 311.005L853.684 310.001L848.688 305.004L847.683 306.009L852.68 311.005Z" fill="#63666A"/>
</g>
<rect x="460" y="230" width="52" height="52" rx="6" fill="#F2F2F2"/>
<path d="M489.787 250.5H491.127V261H489.938V252.756L486.26 261H485.727L482.056 252.756V261H480.866V250.5H482.213L486 258.936L489.787 250.5Z" fill="#63666A"/>
<rect x="406" y="230" width="52" height="52" rx="6" fill="#F2F2F2"/>
<path d="M435.418 250.5H436.539V261H435.746L428.575 252.571V261H427.454V250.5H428.254L435.418 258.922V250.5Z" fill="#63666A"/>
<rect x="352" y="230" width="52" height="52" rx="6" fill="#F2F2F2"/>
<path d="M379.88 255.613C381.138 255.914 381.938 256.851 381.938 258.225C381.938 259.865 380.652 261 379.06 261H374.842V250.5H378.273C379.88 250.5 381.186 251.648 381.186 253.303C381.186 254.369 380.714 255.162 379.88 255.613ZM379.996 253.398C379.996 252.387 379.463 251.621 378.144 251.621H376.018V255.189H378.144C379.169 255.189 379.996 254.417 379.996 253.398ZM378.902 259.879C380.064 259.879 380.748 259.093 380.748 258.088C380.748 257.083 379.928 256.311 378.902 256.311H376.018V259.879H378.902Z" fill="#63666A"/>
<rect x="298" y="230" width="52" height="52" rx="6" fill="#F2F2F2"/>
<path d="M327.514 250.5H328.689L324.431 261H323.562L319.304 250.5H320.479L323.993 259.332L327.514 250.5Z" fill="#63666A"/>
<rect x="244" y="230" width="52" height="52" rx="6" fill="#F2F2F2"/>
<path d="M270.916 261.137C267.922 261.137 265.529 258.744 265.529 255.75C265.529 252.756 267.922 250.363 270.916 250.363C272.276 250.363 273.773 250.992 274.724 251.942L273.869 252.783C273.117 252.011 272.01 251.553 270.916 251.553C268.578 251.553 266.719 253.398 266.719 255.75C266.719 258.102 268.578 259.947 270.916 259.947C272.01 259.947 273.117 259.489 273.869 258.717L274.724 259.558C273.773 260.508 272.276 261.137 270.916 261.137Z" fill="#63666A"/>
<rect x="190" y="230" width="52" height="52" rx="6" fill="#F2F2F2"/>
<path d="M220.231 261H218.789L215.993 256.652L213.211 261H211.775L215.351 255.668L211.871 250.5H213.3L216 254.677L218.7 250.5H220.129L216.643 255.668L220.231 261Z" fill="#63666A"/>
<rect x="136" y="230" width="52" height="52" rx="6" fill="#F2F2F2"/>
<path d="M165.609 250.5V251.539L159.922 259.879H165.609V261H158.384V259.995L164.099 251.621H158.384V250.5H165.609Z" fill="#63666A"/>
<rect x="14" y="230" width="120" height="52" rx="6" fill="#F2F2F2"/>
<path d="M24.3549 251.137C23.1381 251.137 22.2153 250.651 21.6137 250.173L22.2426 249.25C22.7416 249.715 23.5414 250.104 24.3959 250.104C25.2778 250.104 25.8657 249.701 25.8657 248.983C25.8657 248.225 25.1137 248.006 24.2455 247.753C23.1655 247.432 21.9623 247.097 21.9623 245.695C21.9623 244.335 23.1518 243.624 24.5053 243.624C25.3461 243.624 26.1596 243.891 26.8022 244.349L26.1459 245.217C25.5444 244.772 24.9428 244.615 24.4096 244.615C23.6098 244.615 23.0356 244.964 23.0356 245.593C23.0356 246.338 23.9379 246.55 24.8608 246.816C25.8793 247.11 26.9868 247.514 26.9868 248.915C26.9868 250.33 25.9067 251.137 24.3549 251.137ZM31.6628 243.624C33.2761 243.624 34.5613 244.656 34.5613 246.803V251H33.5359V246.885C33.5359 245.244 32.6404 244.629 31.5261 244.629C30.405 244.629 29.5232 245.367 29.5095 246.816V251H28.4704V240.5H29.5095V244.793C29.9607 244.034 30.7126 243.624 31.6628 243.624ZM37.0088 241.915C36.5918 241.915 36.2227 241.566 36.2227 241.143C36.2227 240.698 36.5918 240.363 37.0088 240.363C37.4258 240.363 37.7949 240.698 37.7949 241.143C37.7949 241.566 37.4258 241.915 37.0088 241.915ZM36.4619 251V243.761H37.5557V251H36.4619ZM42.136 241.354C41.4593 241.354 41.0286 241.799 41.0286 242.612V243.761H42.9427V244.745H41.0286V251H39.9348V244.745H38.718V243.761H39.9348V242.489C39.9348 241.184 40.7483 240.363 41.9651 240.363C42.2727 240.363 42.594 240.418 42.9427 240.514V241.525C42.6487 241.409 42.3821 241.354 42.136 241.354ZM47.3248 244.745H45.4107V248.888C45.4107 249.626 45.855 250.05 46.4976 250.05H47.3248V251H46.3746C45.1714 251 44.317 250.316 44.317 249.011V244.745H43.1002V243.761H44.317V241.758H45.4107V243.761H47.3248V244.745Z" fill="#63666A"/>
<rect x="579" y="284" width="52" height="52" rx="6" fill="#F2F2F2"/>
<path d="M590.617 305.123C588.519 305.123 586.837 303.462 586.837 301.377C586.837 299.285 588.519 297.624 590.617 297.624C591.902 297.624 593.037 298.253 593.728 299.217L592.832 299.873C592.354 299.148 591.567 298.684 590.617 298.684C589.093 298.684 587.931 299.859 587.931 301.377C587.931 302.888 589.093 304.063 590.617 304.063C591.567 304.063 592.354 303.599 592.832 302.874L593.728 303.53C593.037 304.494 591.902 305.123 590.617 305.123ZM598.294 298.745H596.38V302.888C596.38 303.626 596.825 304.05 597.467 304.05H598.294V305H597.344C596.141 305 595.286 304.316 595.286 303.011V298.745H594.07V297.761H595.286V295.758H596.38V297.761H598.294V298.745ZM600.81 298.93C601.289 298.15 602.171 297.692 603.346 297.692V298.745C601.904 298.745 600.81 299.271 600.81 301.035V305H599.716V297.761H600.81V298.93ZM604.454 305V294.5H605.548V305H604.454Z" fill="#63666A"/>
<rect x="633" y="284" width="81" height="52" rx="6" fill="#F2F2F2"/>
<path d="M643.803 295.354C643.126 295.354 642.696 295.799 642.696 296.612V297.761H644.61V298.745H642.696V305H641.602V298.745H640.385V297.761H641.602V296.489C641.602 295.184 642.415 294.363 643.632 294.363C643.94 294.363 644.261 294.418 644.61 294.514V295.525C644.316 295.409 644.049 295.354 643.803 295.354ZM648.964 297.624C650.578 297.624 651.863 298.656 651.863 300.803V305H650.769V300.885C650.769 299.244 649.949 298.629 648.828 298.629C647.707 298.629 646.825 299.367 646.811 300.816V305H645.717V297.761H646.811V298.793C647.262 298.034 648.014 297.624 648.964 297.624Z" fill="#63666A"/>
<rect x="14" y="14" width="79" height="52" rx="6" fill="#F2F2F2"/>
<path d="M29.4851 31.2881L29.4714 31.5H22.9704C23.0183 32.9834 24.2487 34.1455 25.7185 34.1455C26.655 34.1455 27.5095 33.6807 28.0154 32.915L28.9382 33.3047C28.282 34.4395 27.0925 35.1367 25.7321 35.1367C23.6062 35.1367 21.9519 33.4619 21.9519 31.377C21.9519 29.2988 23.6198 27.624 25.7185 27.624C27.7898 27.624 29.4167 29.2168 29.4851 31.2881ZM25.7185 28.6152C24.4538 28.6152 23.4079 29.4424 23.0798 30.6182H28.3366C28.0085 29.4561 26.99 28.6152 25.7185 28.6152ZM32.8486 35.1367C31.6318 35.1367 30.709 34.6514 30.1074 34.1729L30.7363 33.25C31.2354 33.7148 32.0352 34.1045 32.8896 34.1045C33.7715 34.1045 34.3594 33.7012 34.3594 32.9834C34.3594 32.2246 33.6074 32.0059 32.7393 31.7529C31.6592 31.4316 30.4561 31.0967 30.4561 29.6953C30.4561 28.335 31.6455 27.624 32.999 27.624C33.8398 27.624 34.6533 27.8906 35.2959 28.3486L34.6396 29.2168C34.0381 28.7725 33.4365 28.6152 32.9033 28.6152C32.1035 28.6152 31.5293 28.9639 31.5293 29.5928C31.5293 30.3379 32.4316 30.5498 33.3545 30.8164C34.373 31.1104 35.4805 31.5137 35.4805 32.915C35.4805 34.3301 34.4004 35.1367 32.8486 35.1367ZM40.1292 35.123C38.0305 35.123 36.3489 33.4619 36.3489 31.377C36.3489 29.2852 38.0305 27.624 40.1292 27.624C41.4143 27.624 42.5491 28.2529 43.2395 29.2168L42.344 29.873C41.8655 29.1484 41.0794 28.6836 40.1292 28.6836C38.6048 28.6836 37.4427 29.8594 37.4427 31.377C37.4427 32.8877 38.6048 34.0635 40.1292 34.0635C41.0794 34.0635 41.8655 33.5986 42.344 32.874L43.2395 33.5303C42.5491 34.4941 41.4143 35.123 40.1292 35.123Z" fill="#63666A"/>
<rect x="743" y="14" width="79" height="52" rx="6" fill="#F2F2F2"/>
<path d="M754.313 35.1367C752.358 35.1367 750.676 33.4619 750.676 31.377C750.676 29.2988 752.358 27.624 754.313 27.624C755.537 27.624 756.514 28.1367 757.143 28.9502V24.5H758.237V35H757.143V33.8105C756.514 34.624 755.537 35.1367 754.313 35.1367ZM754.457 34.0771C755.954 34.0771 757.143 32.874 757.143 31.377C757.143 29.8867 755.954 28.6836 754.457 28.6836C752.973 28.6836 751.77 29.8867 751.77 31.377C751.77 32.874 752.973 34.0771 754.457 34.0771ZM767.254 31.2881L767.24 31.5H760.739C760.787 32.9834 762.018 34.1455 763.487 34.1455C764.424 34.1455 765.278 33.6807 765.784 32.915L766.707 33.3047C766.051 34.4395 764.861 35.1367 763.501 35.1367C761.375 35.1367 759.721 33.4619 759.721 31.377C759.721 29.2988 761.389 27.624 763.487 27.624C765.559 27.624 767.186 29.2168 767.254 31.2881ZM763.487 28.6152C762.223 28.6152 761.177 29.4424 760.849 30.6182H766.105C765.777 29.4561 764.759 28.6152 763.487 28.6152ZM768.615 35V24.5H769.708V35H768.615Z" fill="#63666A"/>
<rect x="756" y="122" width="66" height="52" rx="6" fill="#F2F2F2"/>
<path d="M788.61 133.5H789.383V146.099H788.61V133.5Z" fill="#63666A"/>
<path d="M785.042 150.5H786.163L792.951 163.379H791.844L785.042 150.5Z" fill="#63666A"/>
<rect x="14" y="122" width="92" height="52" rx="6" fill="#F2F2F2"/>
<path d="M25.5134 136.745H23.5993V140.888C23.5993 141.626 24.0437 142.05 24.6862 142.05H25.5134V143H24.5632C23.3601 143 22.5056 142.316 22.5056 141.011V136.745H21.2888V135.761H22.5056V133.758H23.5993V135.761H25.5134V136.745ZM29.793 143.137C27.8379 143.137 26.1562 141.462 26.1562 139.377C26.1562 137.299 27.8379 135.624 29.793 135.624C31.0166 135.624 31.9941 136.137 32.623 136.95V135.761H33.7168V143H32.623V141.811C31.9941 142.624 31.0166 143.137 29.793 143.137ZM29.9365 142.077C31.4336 142.077 32.623 140.874 32.623 139.377C32.623 137.887 31.4336 136.684 29.9365 136.684C28.4531 136.684 27.25 137.887 27.25 139.377C27.25 140.874 28.4531 142.077 29.9365 142.077ZM39.7395 143.137C38.5159 143.137 37.5384 142.624 36.9095 141.811V143H35.8157V132.5H36.9095V136.95C37.5384 136.137 38.5159 135.624 39.7395 135.624C41.6946 135.624 43.3762 137.299 43.3762 139.377C43.3762 141.462 41.6946 143.137 39.7395 143.137ZM39.596 142.077C41.0794 142.077 42.2825 140.874 42.2825 139.377C42.2825 137.887 41.0794 136.684 39.596 136.684C38.0989 136.684 36.9095 137.887 36.9095 139.377C36.9095 140.874 38.0989 142.077 39.596 142.077Z" fill="#63666A"/>
<rect x="676" y="230" width="92" height="52" rx="6" fill="#F2F2F2"/>
<path d="M686.355 251.137C685.138 251.137 684.215 250.651 683.614 250.173L684.243 249.25C684.742 249.715 685.541 250.104 686.396 250.104C687.278 250.104 687.866 249.701 687.866 248.983C687.866 248.225 687.114 248.006 686.246 247.753C685.165 247.432 683.962 247.097 683.962 245.695C683.962 244.335 685.152 243.624 686.505 243.624C687.346 243.624 688.16 243.891 688.802 244.349L688.146 245.217C687.544 244.772 686.943 244.615 686.41 244.615C685.61 244.615 685.036 244.964 685.036 245.593C685.036 246.338 685.938 246.55 686.861 246.816C687.879 247.11 688.987 247.514 688.987 248.915C688.987 250.33 687.907 251.137 686.355 251.137ZM693.663 243.624C695.276 243.624 696.561 244.656 696.561 246.803V251H695.536V246.885C695.536 245.244 694.64 244.629 693.526 244.629C692.405 244.629 691.523 245.367 691.509 246.816V251H690.47V240.5H691.509V244.793C691.961 244.034 692.713 243.624 693.663 243.624ZM699.009 241.915C698.592 241.915 698.223 241.566 698.223 241.143C698.223 240.698 698.592 240.363 699.009 240.363C699.426 240.363 699.795 240.698 699.795 241.143C699.795 241.566 699.426 241.915 699.009 241.915ZM698.462 251V243.761H699.556V251H698.462ZM704.136 241.354C703.459 241.354 703.029 241.799 703.029 242.612V243.761H704.943V244.745H703.029V251H701.935V244.745H700.718V243.761H701.935V242.489C701.935 241.184 702.748 240.363 703.965 240.363C704.273 240.363 704.594 240.418 704.943 240.514V241.525C704.649 241.409 704.382 241.354 704.136 241.354ZM709.325 244.745H707.411V248.888C707.411 249.626 707.855 250.05 708.498 250.05H709.325V251H708.375C707.171 251 706.317 250.316 706.317 249.011V244.745H705.1V243.761H706.317V241.758H707.411V243.761H709.325V244.745Z" fill="#63666A"/>
<rect x="244" y="284" width="333" height="52" rx="6" fill="#F2F2F2"/>
<path d="M863 54C872.389 54 880 46.3888 880 37C880 27.6111 872.389 20 863 20C853.611 20 846 27.6111 846 37C846 46.3888 853.611 54 863 54Z" fill="#4F4F4F"/>
<path d="M876.197 26.2812C876.755 26.9691 877.266 27.7097 877.722 28.5007C878.179 29.2915 878.565 30.1038 878.882 30.9302L849.803 47.7188C849.246 47.031 848.734 46.2915 848.278 45.5007C847.821 44.7096 847.436 43.8964 847.119 43.0698L876.197 26.2812Z" fill="#424242"/>
<path d="M863 102C872.389 102 880 94.3888 880 85C880 75.6111 872.389 68 863 68C853.611 68 846 75.6111 846 85C846 94.3888 853.611 102 863 102Z" fill="#4F4F4F"/>
<path d="M876.197 74.2812C876.755 74.9691 877.266 75.7097 877.722 76.5007C878.179 77.2915 878.565 78.1038 878.882 78.9302L849.803 95.7188C849.246 95.031 848.734 94.2915 848.278 93.5007C847.821 92.7096 847.436 91.8964 847.119 91.0698L876.197 74.2812Z" fill="#424242"/>
<path d="M867.577 115L869.713 115.013L872.106 115.05L873.767 115.134L875.299 115.265L876.655 115.429L877.885 115.635L879.019 115.872L880.052 116.143L880.993 116.452L881.861 116.79L882.675 117.164L883.425 117.564L884.084 117.969L884.704 118.423L885.294 118.913L885.83 119.429L886.346 120L886.816 120.612L887.285 121.318L887.724 122.091L888.131 122.923L888.466 123.768L888.788 124.688L889.062 125.691L889.319 126.784L889.523 127.983L889.71 129.346L889.841 130.844L889.938 132.529L889.987 134.435L890 137.338L890 254.781L889.95 257.156L889.865 258.834L889.746 260.333L889.57 261.69L889.375 262.927L889.131 264.033L888.855 265.068L888.541 266.017L888.197 266.905L887.837 267.695L887.45 268.417L887.025 269.086L886.557 269.732L886.074 270.309L885.558 270.843L884.995 271.347L884.357 271.836L883.664 272.3L882.922 272.719L882.051 273.126L881.213 273.471L880.282 273.78L879.284 274.064L878.182 274.308L876.972 274.525L875.606 274.699L874.1 274.842L872.426 274.938L870.501 274.987L867.588 275H856.286L853.903 274.95L852.234 274.866L850.713 274.735L849.343 274.571L848.115 274.365L846.986 274.129L845.965 273.858L845.013 273.546L844.122 273.203L843.347 272.852L842.594 272.441L841.906 272.024L841.296 271.577L840.706 271.087L840.182 270.583L839.665 270L839.174 269.374L838.715 268.682L838.285 267.925L837.88 267.077L837.534 266.231L837.224 265.313L836.939 264.308L836.693 263.217L836.477 262.016L836.302 260.655L836.159 259.142L836.062 257.471L836.013 255.566L836 139.195V137.348L836.013 135.22L836.05 132.847L836.135 131.18L836.266 129.666L836.43 128.311L836.637 127.072L836.874 125.95L837.145 124.932L837.459 123.983L837.803 123.095L838.155 122.322L838.562 121.582L838.986 120.898L839.443 120.268L839.915 119.703L840.431 119.18L841.03 118.643L841.645 118.163L842.339 117.706L843.091 117.281L843.962 116.874L844.806 116.527L845.719 116.22L846.727 115.936L847.822 115.691L849.028 115.475L850.393 115.301L851.911 115.158L853.587 115.062L855.499 115.013L858.42 115H867.577Z" fill="black"/>
<defs>
<clipPath id="clip0_2189_9931">
<rect width="7.36903" height="10" fill="white" transform="translate(801 252.315) rotate(90)"/>
</clipPath>
<clipPath id="clip1_2189_9931">
<rect width="7.36903" height="10" fill="white" transform="translate(791 313.685) rotate(-90)"/>
</clipPath>
<clipPath id="clip2_2189_9931">
<rect width="7.36903" height="10" fill="white" transform="translate(738.315 305)"/>
</clipPath>
<clipPath id="clip3_2189_9931">
<rect width="7.36903" height="10" fill="white" transform="translate(853.684 315) rotate(-180)"/>
</clipPath>
</defs>
</svg>
